<?xml version="1.0" encoding="UTF-8"?>
<svg id="Layer_2" data-name="Layer 2" xmlns="http://www.w3.org/2000/svg" xmlns:xlink="http://www.w3.org/1999/xlink" viewBox="0 0 502.22 64.88">
  <defs>
    <style>
      .cls-1 {
        fill: none;
      }

      .cls-2 {
        fill: #d6d6d6;
      }

      .cls-3 {
        clip-path: url(#clippath);
      }

      .cls-4 {
        fill: #e6e6e6;
      }
    </style>
    <clipPath id="clippath">
      <rect class="cls-1" width="502.22" height="64.88"/>
    </clipPath>
  </defs>
  <g id="Layer_3" data-name="Layer 3">
    <g class="cls-3">
      <g>
        <path class="cls-4" d="M583.12,41.68c0,4.81-24.26,8.72-54.19,8.72-12.73,0-24.42-.71-33.66-1.89-1.09-.14-2.13.23-2.23.76s-.37,1.03-.84,1.48c-5.78,5.58-38.33,3.74-72.69-4.11-24.72-5.64-43.66-12.87-50.19-18.55-.27-.24-.77-.4-1.34-.44-19.93-1.24-34.18-4.55-34.18-8.44,0-4.95,23.12-8.96,51.64-8.96,19.8,0,37,1.93,45.67,4.77.53.17,1.2.21,1.79.08,12.3-2.63,31.41-2.65,50.98.48,22.5,3.6,39.12,10.33,43.27,16.75.23.36.92.62,1.73.62.01,0,.03,0,.04,0,29.93,0,54.19,3.91,54.19,8.73Z"/>
        <path class="cls-4" d="M178.59,41.12c0,.07,0,.14,0,.2,0,5.81-20.96,10.51-46.81,10.51-18.49,0-34.46-2.41-42.06-5.9-.51-.24-1.3-.28-1.94-.14-33.8,7.55-65.46,9.26-71.15,3.76-.81-.78-1.05-1.66-.77-2.62.17-.6-1.1-1.07-2.31-.86-9.92,1.77-24.28,2.89-40.26,2.89-29.93,0-54.19-3.91-54.19-8.73s24.26-8.72,54.19-8.72c.03,0,.05,0,.08,0,.78,0,1.45-.25,1.68-.6,4.12-6.43,20.75-13.17,43.28-16.77,19.59-3.13,38.72-3.11,51.01-.47.57.12,1.22.09,1.74-.08,8.66-2.84,25.88-4.78,45.7-4.78,28.52,0,51.64,4.02,51.64,8.96,0,.47-.21.92-.6,1.37-.48.55.33,1.14,1.59,1.14.01,0,.02,0,.03,0,25.86,0,46.81,4.71,46.81,10.51,0,5.1-16.18,9.36-37.66,10.31Z"/>
        <path class="cls-2" d="M451.97,48.67c0,4.82-24.26,8.73-54.19,8.73-15.99,0-30.36-1.12-40.27-2.89-1.21-.22-2.48.25-2.3.85.28.97.04,1.85-.77,2.63-5.7,5.49-37.34,3.79-71.14-3.76-.65-.14-1.43-.1-1.94.14-7.6,3.49-23.58,5.9-42.07,5.9-25.85,0-46.81-4.71-46.81-10.51,0-.07,0-.14.01-.2-21.48-.95-37.67-5.21-37.67-10.31,0-5.81,20.96-10.51,46.82-10.51.01,0,.02,0,.03,0,1.25,0,2.07-.59,1.59-1.14-.4-.45-.61-.91-.61-1.38,0-4.95,23.13-8.96,51.65-8.96,16.51,0,31.21,1.35,40.67,3.44.45.1.96.1,1.41.01,8.31-1.7,19.35-2.73,31.45-2.73,23.92,0,43.67,4.03,46.46,9.24.11.2.35.37.72.49,1.12.35,2.21.72,3.26,1.09.23.08.49.13.77.15,19.25,1.3,33.25,5.31,33.25,10.06,0,.15-.01.29-.04.44-.08.45.58.85,1.54.9,22.12,1.1,38.19,4.42,38.19,8.33Z"/>
      </g>
    </g>
  </g>
</svg>