<?xml version="1.0" encoding="UTF-8"?>
<svg id="Layer_2" data-name="Layer 2" xmlns="http://www.w3.org/2000/svg" xmlns:xlink="http://www.w3.org/1999/xlink" viewBox="0 0 500.69 219.75">
  <defs>
    <style>
      .cls-1 {
        fill: #dcdce2;
      }

      .cls-2 {
        fill: none;
      }

      .cls-3 {
        fill: #f2f2f2;
      }

      .cls-4 {
        fill: #525651;
      }

      .cls-5 {
        fill: #f5f8ff;
      }

      .cls-6 {
        fill: #e6e6e8;
      }

      .cls-7 {
        fill: #3f2500;
      }

      .cls-8 {
        clip-path: url(#clippath);
      }

      .cls-9 {
        fill: #e6e6e6;
      }
    </style>
    <clipPath id="clippath">
      <rect class="cls-2" width="500.69" height="219.75"/>
    </clipPath>
  </defs>
  <g id="Layer_3" data-name="Layer 3">
    <g class="cls-8">
      <polygon class="cls-4" points="488.53 20 490.77 12.92 496.95 13.6 498.95 20.82 495.99 24.55 487.91 22.05 488.53 20"/>
      <polygon class="cls-4" points="484.3 34.38 485.82 31.63 501.72 31.13 502.54 33.15 501.31 41.76 481.78 39.9 484.3 34.38"/>
      <path class="cls-7" d="M495.04,50.98v3.13c0,.11-.07.21-.18.24-.52.18-1.21.37-1.49.27-.4-.15-1.03-.54-2.22-.2-.12.04-.24-.06-.24-.18v-3.36c.45-.04.92-.13,1.4-.29,0,0,0,0,.01,0,.15-.05.3-.11.46-.18h0s.05-.03.07-.04c0,0,0,0,.01,0,0,0,.01,0,.02-.01,0,0,.26.12.68.25h0c.38.13.9.28,1.47.37Z"/>
      <path class="cls-1" d="M501.52,16.46c-.35.34-.87.43-1.33.29-2.06-.63-2.88-1.08-3.42-1.45-.45-.31-1.07-.14-1.31.35-.22.45-.73.88-1.82,1.01-.98.12-1.44-.35-1.63-.96-.17-.55-.92-.63-1.22-.14-1.47,2.36-2.33,3.49-2.19,1.76.18-2.18-1.16-.68-1.16-.68-.09.21-.33.31-.55.25-.67-.21-1.85-.76-.91-1.87,2.45-3.49,6.88-10.93,7.02-11.17h0s.35-.53.54-1.14c.06-.19.32-.21.4-.03l.52,1.08h0c.21.4,4.95,9.07,6.55,10.46.12.11.23.22.34.35.75.93.54,1.53.17,1.89Z"/>
      <path class="cls-1" d="M505.97,48.25c-1.7,3.13-6.74,1.43-6.74,1.43-.93,1.49-2.74,1.55-4.19,1.3-.57-.1-1.09-.24-1.47-.37h0c-.42-.14-.68-.25-.68-.25,0,0-.01,0-.02.01,0,0-.01,0-.01,0-.02.02-.05.03-.07.04h0c-.16.07-.31.13-.46.18,0,0,0,0-.01,0-.48.16-.94.26-1.4.29-2.22.2-4.04-.91-4.6-1.29l-.1-.06-.03-.02-.05-.03c-1.15,1.61-5.08,1.64-5.51-1.38,0-.04,0-.08-.01-.12-.03,0-.06,0-.1,0-3.44-.18-10.48,1.13-5.22-2.65,4.37-3.14,7.7-8.64,8.74-10.49l.25-.45c-.03.09-.36,1.16,1.12,3.25,1.54,2.18,3.09.14,4.27-1.04s2.73,2.27,3.77,1.86c1.04-.41,1.18-3.45,1.95-2.23s2.64,5.45,3.27,3.27c.64-2.18-.32-4,1.55-4.09,1.86-.09,2.31-2.25,2.31-2.25,6.99,10.86,2.48,3.44,9.84,12.78,1.36,3.06-6.41,2.32-6.41,2.32Z"/>
      <path class="cls-3" d="M495.16,44.52s-.06.03-.09.04c.03-.01.05-.03.07-.04,0,0,0,0,.01,0Z"/>
      <path class="cls-9" d="M494.61,44.73c.15-.05.3-.11.46-.18-.15.08-.32.14-.46.18Z"/>
      <path class="cls-9" d="M495.86,44.77c-.2-.07-.63-.23-.7-.25,0,0,.01,0,.02-.01,0,0,.26.12.68.25h0s0,.01,0,.01Z"/>
      <path class="cls-1" d="M502.43,32.45c-.56-.02-1.08.32-1.29.84-.24.58-.74,1.16-1.82.66-1.86-.86-1.59.68-4,1.04-2.41.36-3.73-.09-4.22-1.23-.5-1.14-3.95,2.41-4.63,1.14-.3-.55-.5-1.15-.64-1.64-.13-.46-.63-.71-1.07-.54-1.87.72-5.88.55-3.48-1.85,2.86-2.86,7.1-10.58,7.25-10.85h0s1.39,3.58,2.7,2.26c1.32-1.32,1.86-3.5,3.36-2.45,1.5,1.04,1.91.32,2.13-.55.23-.86,1.45-1.16,1.45-1.16v.02c.27.46,6.56,11.55,8.19,13.18,1.32,1.32-2.03,1.21-3.94,1.15Z"/>
      <polygon class="cls-4" points="165.24 46.35 166.64 41.93 170.49 42.36 171.74 46.86 169.9 49.18 164.86 47.63 165.24 46.35"/>
      <polygon class="cls-4" points="162.61 55.32 163.55 53.6 173.47 53.29 173.98 54.55 173.21 59.92 161.03 58.76 162.61 55.32"/>
      <path class="cls-7" d="M169.31,65.67v1.95c0,.07-.05.13-.11.15-.33.11-.75.23-.93.17-.25-.09-.64-.34-1.38-.12-.08.02-.15-.04-.15-.11v-2.1c.28-.02.57-.08.87-.18,0,0,0,0,0,0,.1-.03.19-.07.29-.11h0s.03-.02.05-.03c0,0,0,0,0,0,0,0,0,0,.01,0,0,0,.16.07.42.16h0c.24.08.56.17.92.23Z"/>
      <path class="cls-1" d="M173.34,44.14c-.22.21-.54.27-.83.18-1.29-.39-1.79-.67-2.13-.91-.28-.2-.66-.09-.82.22-.14.28-.45.55-1.13.63-.61.07-.9-.22-1.02-.6-.11-.34-.57-.39-.76-.09-.92,1.47-1.45,2.18-1.36,1.1.11-1.36-.73-.42-.73-.42-.06.13-.21.2-.34.15-.42-.13-1.15-.47-.57-1.17,1.53-2.17,4.29-6.82,4.38-6.96h0s.22-.33.34-.71c.04-.12.2-.13.25-.02l.32.67h0c.13.25,3.09,5.66,4.09,6.53.08.07.15.14.21.22.47.58.33.96.1,1.18Z"/>
      <path class="cls-1" d="M176.12,63.97c-1.06,1.95-4.21.89-4.21.89-.58.93-1.71.97-2.61.81-.36-.06-.68-.15-.92-.23h0c-.26-.09-.42-.16-.42-.16,0,0,0,0-.01,0,0,0,0,0,0,0-.02.01-.03.02-.05.03h0c-.1.04-.19.08-.29.11,0,0,0,0,0,0-.3.1-.59.16-.87.18-1.38.12-2.52-.57-2.87-.81l-.06-.04-.02-.02-.03-.02c-.71,1.01-3.17,1.02-3.43-.86,0-.02,0-.05,0-.07-.02,0-.04,0-.06,0-2.15-.11-6.54.7-3.25-1.65,2.72-1.96,4.8-5.39,5.45-6.54l.15-.28c-.02.06-.22.73.7,2.03.96,1.36,1.93.09,2.66-.65s1.7,1.42,2.35,1.16c.65-.26.74-2.15,1.22-1.39s1.64,3.4,2.04,2.04c.4-1.36-.2-2.49.96-2.55,1.16-.06,1.44-1.4,1.44-1.4,4.36,6.78,1.55,2.15,6.14,7.97.85,1.91-4,1.44-4,1.44Z"/>
      <path class="cls-3" d="M167.95,65.29s-.04.02-.05.02c.02,0,.03-.02.05-.03,0,0,0,0,0,0Z"/>
      <path class="cls-9" d="M167.61,65.43c.1-.03.19-.07.29-.11-.09.05-.2.09-.29.11Z"/>
      <path class="cls-9" d="M168.39,65.45c-.13-.05-.4-.14-.44-.16,0,0,0,0,.01,0,0,0,.16.07.42.16h0s0,0,0,0Z"/>
      <path class="cls-1" d="M173.91,54.11c-.35-.01-.67.2-.81.52-.15.36-.46.72-1.13.41-1.16-.54-.99.42-2.49.65-1.5.23-2.32-.06-2.63-.76-.31-.71-2.47,1.5-2.89.71-.19-.35-.31-.72-.4-1.02-.08-.28-.39-.44-.67-.34-1.17.45-3.67.34-2.17-1.16,1.78-1.79,4.43-6.6,4.52-6.77h0s.87,2.23,1.69,1.41c.82-.82,1.16-2.18,2.1-1.53.94.65,1.19.2,1.33-.34.14-.54.91-.73.91-.73h0c.16.3,4.09,7.22,5.1,8.23.82.82-1.27.75-2.46.72Z"/>
      <polygon class="cls-4" points="141.5 43.78 143.47 37.57 148.88 38.17 150.64 44.5 148.05 47.77 140.96 45.58 141.5 43.78"/>
      <polygon class="cls-4" points="137.79 56.39 139.12 53.98 153.07 53.54 153.78 55.32 152.71 62.87 135.58 61.23 137.79 56.39"/>
      <path class="cls-7" d="M147.21,70.95v2.75c0,.1-.06.18-.16.21-.46.16-1.06.33-1.31.23-.35-.13-.9-.48-1.94-.17-.11.03-.21-.05-.21-.16v-2.95c.4-.03.81-.12,1.22-.26,0,0,0,0,0,0,.13-.04.27-.1.4-.16h0s.04-.02.07-.04c0,0,0,0,0,0,0,0,.01,0,.02,0,0,0,.23.1.6.22h0c.34.11.79.24,1.29.33Z"/>
      <path class="cls-1" d="M152.89,40.67c-.3.3-.76.38-1.17.25-1.81-.55-2.52-.94-3-1.27-.39-.27-.93-.12-1.15.31-.19.39-.64.78-1.59.89-.86.1-1.26-.31-1.43-.84-.15-.48-.81-.55-1.07-.12-1.29,2.07-2.05,3.07-1.92,1.54.16-1.91-1.02-.6-1.02-.6-.08.19-.29.27-.48.22-.58-.19-1.62-.67-.8-1.64,2.15-3.06,6.03-9.59,6.15-9.79h0s.31-.47.47-1c.05-.17.28-.19.35-.03l.45.95h0c.19.35,4.34,7.96,5.75,9.18.11.09.21.2.29.31.66.82.47,1.35.15,1.66Z"/>
      <path class="cls-1" d="M156.8,68.56c-1.49,2.75-5.91,1.25-5.91,1.25-.82,1.31-2.4,1.36-3.67,1.14-.5-.08-.95-.21-1.29-.32h0c-.37-.12-.6-.22-.6-.22,0,0-.01,0-.02,0,0,0,0,0,0,0-.02.01-.04.03-.07.04h0c-.14.06-.27.11-.4.16,0,0,0,0,0,0-.42.14-.83.23-1.22.26-1.95.17-3.54-.8-4.03-1.13l-.08-.06-.03-.02-.04-.03c-1.01,1.42-4.46,1.44-4.83-1.21,0-.03,0-.07-.01-.1-.03,0-.06,0-.08,0-3.02-.16-9.2.99-4.58-2.33,3.83-2.75,6.75-7.58,7.67-9.2l.22-.39c-.03.08-.31,1.02.98,2.85,1.35,1.91,2.71.12,3.74-.92s2.39,1.99,3.31,1.63c.92-.36,1.04-3.03,1.71-1.95s2.31,4.78,2.87,2.87c.56-1.91-.28-3.51,1.36-3.59,1.63-.08,2.02-1.97,2.02-1.97,6.13,9.53,2.18,3.02,8.63,11.21,1.2,2.69-5.62,2.03-5.62,2.03Z"/>
      <path class="cls-3" d="M145.31,70.42s-.05.02-.08.03c.02-.01.04-.02.07-.04,0,0,0,0,0,0Z"/>
      <path class="cls-9" d="M144.83,70.61c.13-.04.27-.1.4-.16-.13.07-.28.12-.4.16Z"/>
      <path class="cls-9" d="M145.93,70.64c-.18-.06-.56-.2-.62-.22,0,0,.01,0,.02,0,0,0,.23.1.6.22h0s0,0,0,0Z"/>
      <path class="cls-1" d="M153.69,54.7c-.49-.02-.95.28-1.13.74-.21.51-.65,1.02-1.59.58-1.63-.76-1.4.6-3.51.92-2.11.32-3.27-.08-3.7-1.08-.44-1-3.47,2.11-4.06,1-.26-.49-.44-1.01-.57-1.44-.11-.4-.55-.62-.94-.48-1.64.63-5.16.48-3.05-1.63,2.51-2.51,6.23-9.28,6.36-9.52h0s1.22,3.14,2.37,1.98c1.16-1.16,1.63-3.07,2.95-2.15,1.32.92,1.67.28,1.87-.48.2-.76,1.28-1.02,1.28-1.02h0c.23.42,5.75,10.15,7.17,11.57,1.15,1.15-1.78,1.06-3.46,1.01Z"/>
      <polygon class="cls-4" points="474.79 27.63 476.19 23.21 480.04 23.64 481.29 28.14 479.45 30.47 474.41 28.91 474.79 27.63"/>
      <polygon class="cls-4" points="472.16 36.6 473.1 34.88 483.02 34.57 483.53 35.83 482.76 41.2 470.58 40.04 472.16 36.6"/>
      <path class="cls-7" d="M478.86,46.95v1.95c0,.07-.05.13-.11.15-.33.11-.75.23-.93.17-.25-.09-.64-.34-1.38-.12-.08.02-.15-.04-.15-.11v-2.1c.28-.02.57-.08.87-.18,0,0,0,0,0,0,.1-.03.19-.07.29-.11h0s.03-.02.05-.03c0,0,0,0,0,0,0,0,0,0,.01,0,0,0,.16.07.42.16h0c.24.08.56.17.92.23Z"/>
      <path class="cls-1" d="M482.89,25.42c-.22.21-.54.27-.83.18-1.29-.39-1.79-.67-2.13-.91-.28-.2-.66-.09-.82.22-.14.28-.45.55-1.13.63-.61.07-.9-.22-1.02-.6-.11-.34-.57-.39-.76-.09-.92,1.47-1.45,2.18-1.36,1.1.11-1.36-.73-.42-.73-.42-.06.13-.21.2-.34.15-.42-.13-1.15-.47-.57-1.17,1.53-2.17,4.29-6.82,4.38-6.96h0s.22-.33.34-.71c.04-.12.2-.13.25-.02l.32.67h0c.13.25,3.09,5.66,4.09,6.53.08.07.15.14.21.22.47.58.33.96.1,1.18Z"/>
      <path class="cls-6" d="M485.67,45.25c-1.06,1.95-4.21.89-4.21.89-.58.93-1.71.97-2.61.81-.36-.06-.68-.15-.92-.23h0c-.26-.09-.42-.16-.42-.16,0,0,0,0-.01,0,0,0,0,0,0,0-.02.01-.03.02-.05.03h0c-.1.04-.19.08-.29.11,0,0,0,0,0,0-.3.1-.59.16-.87.18-1.38.12-2.52-.57-2.87-.81l-.06-.04-.02-.02-.03-.02c-.71,1.01-3.17,1.02-3.43-.86,0-.02,0-.05,0-.07-.02,0-.04,0-.06,0-2.15-.11-6.54.7-3.25-1.65,2.72-1.96,4.8-5.39,5.45-6.54l.15-.28c-.02.06-.22.73.7,2.03.96,1.36,1.93.09,2.66-.65s1.7,1.42,2.35,1.16c.65-.26.74-2.15,1.22-1.39s1.64,3.4,2.04,2.04c.4-1.36-.2-2.49.96-2.55,1.16-.06,1.44-1.4,1.44-1.4,4.36,6.78,1.55,2.15,6.14,7.97.85,1.91-4,1.44-4,1.44Z"/>
      <path class="cls-3" d="M477.5,46.57s-.04.02-.05.02c.02,0,.03-.02.05-.03,0,0,0,0,0,0Z"/>
      <path class="cls-9" d="M477.16,46.71c.1-.03.19-.07.29-.11-.09.05-.2.09-.29.11Z"/>
      <path class="cls-9" d="M477.94,46.73c-.13-.05-.4-.14-.44-.16,0,0,0,0,.01,0,0,0,.16.07.42.16h0s0,0,0,0Z"/>
      <path class="cls-1" d="M483.46,35.4c-.35-.01-.67.2-.81.52-.15.36-.46.72-1.13.41-1.16-.54-.99.42-2.49.65-1.5.23-2.32-.06-2.63-.76-.31-.71-2.47,1.5-2.89.71-.19-.35-.31-.72-.4-1.02-.08-.28-.39-.44-.67-.34-1.17.45-3.67.34-2.17-1.16,1.78-1.79,4.43-6.6,4.52-6.77h0s.87,2.23,1.69,1.41c.82-.82,1.16-2.18,2.1-1.53.94.65,1.19.2,1.33-.34.14-.54.91-.73.91-.73h0c.16.3,4.09,7.22,5.1,8.23.82.82-1.27.75-2.46.72Z"/>
      <path class="cls-1" d="M500.72,53.41s-122.1-37.46-254.14-5.15C109.88,81.71-.71,94.83-.71,94.83v125.65s501.46,0,501.46,0l-.02-167.06Z"/>
      <path class="cls-5" d="M-1.19,51.38c-17.03-17.7,149.51-6.73,254.93,47.27,55.45,28.41,249.32-11.77,248.69-8.3l-1.4,130.12H-.42L-1.19,51.38Z"/>
    </g>
  </g>
</svg>